<mxfile host="app.diagrams.net" modified="2022-03-22T10:55:49.672Z" agent="5.0 (Windows NT 10.0; Win64; x64) AppleWebKit/537.36 (KHTML, like Gecko) Chrome/99.0.4844.74 Safari/537.36" etag="AbF0rNlzcPH8Be9y0V_8" version="16.6.4" type="github">
  <diagram name="Page-1" id="e7e014a7-5840-1c2e-5031-d8a46d1fe8dd">
    <mxGraphModel dx="1422" dy="794" grid="1" gridSize="10" guides="1" tooltips="1" connect="1" arrows="1" fold="1" page="1" pageScale="1" pageWidth="1169" pageHeight="826" background="none" math="0" shadow="0">
      <root>
        <mxCell id="0" />
        <mxCell id="1" parent="0" />
        <mxCell id="2" value="User" style="swimlane;whiteSpace=wrap" parent="1" vertex="1">
          <mxGeometry x="160" y="128" width="280" height="662" as="geometry" />
        </mxCell>
        <mxCell id="5" value="" style="ellipse;shape=startState;fillColor=#000000;strokeColor=#ff0000;" parent="2" vertex="1">
          <mxGeometry x="100" y="40" width="30" height="30" as="geometry" />
        </mxCell>
        <mxCell id="6" value="" style="edgeStyle=elbowEdgeStyle;elbow=horizontal;verticalAlign=bottom;endArrow=open;endSize=8;strokeColor=#FF0000;endFill=1;rounded=0" parent="2" source="5" target="7" edge="1">
          <mxGeometry x="100" y="40" as="geometry">
            <mxPoint x="115" y="110" as="targetPoint" />
          </mxGeometry>
        </mxCell>
        <mxCell id="7" value="创建广告活动" style="" parent="2" vertex="1">
          <mxGeometry x="60" y="117" width="110" height="50" as="geometry" />
        </mxCell>
        <mxCell id="4rdkihDqSUUSsWT2atmi-60" value="提示异常" style="ellipse;whiteSpace=wrap;html=1;fontColor=#FF0000;" vertex="1" parent="2">
          <mxGeometry x="50" y="302" width="120" height="80" as="geometry" />
        </mxCell>
        <mxCell id="4rdkihDqSUUSsWT2atmi-80" value="&lt;font color=&quot;#ff0000&quot;&gt;提示异常&lt;/font&gt;" style="ellipse;whiteSpace=wrap;html=1;" vertex="1" parent="2">
          <mxGeometry x="40" y="535" width="138" height="71" as="geometry" />
        </mxCell>
        <mxCell id="3" value="Database" style="swimlane;whiteSpace=wrap" parent="1" vertex="1">
          <mxGeometry x="440" y="128" width="280" height="662" as="geometry" />
        </mxCell>
        <mxCell id="4rdkihDqSUUSsWT2atmi-51" value="Update&amp;nbsp;Campagin" style="rounded=1;whiteSpace=wrap;html=1;" vertex="1" parent="3">
          <mxGeometry x="70" y="236" width="120" height="60" as="geometry" />
        </mxCell>
        <mxCell id="4rdkihDqSUUSsWT2atmi-53" value="Add AdsGroup" style="rounded=1;whiteSpace=wrap;html=1;" vertex="1" parent="3">
          <mxGeometry x="70" y="372" width="120" height="60" as="geometry" />
        </mxCell>
        <mxCell id="4rdkihDqSUUSsWT2atmi-54" value="" style="edgeStyle=orthogonalEdgeStyle;rounded=0;orthogonalLoop=1;jettySize=auto;html=1;strokeColor=#FF0000;" edge="1" parent="3" source="4rdkihDqSUUSsWT2atmi-51" target="4rdkihDqSUUSsWT2atmi-53">
          <mxGeometry relative="1" as="geometry" />
        </mxCell>
        <mxCell id="4rdkihDqSUUSsWT2atmi-55" value="Add Campagin" style="rounded=1;whiteSpace=wrap;html=1;" vertex="1" parent="3">
          <mxGeometry x="80" y="112" width="110" height="60" as="geometry" />
        </mxCell>
        <mxCell id="4rdkihDqSUUSsWT2atmi-74" value="Update AdsGroup" style="whiteSpace=wrap;html=1;" vertex="1" parent="3">
          <mxGeometry x="69" y="482" width="120" height="60" as="geometry" />
        </mxCell>
        <mxCell id="4rdkihDqSUUSsWT2atmi-78" value="........" style="text;html=1;align=center;verticalAlign=middle;resizable=0;points=[];autosize=1;strokeColor=none;fillColor=none;fontColor=#000000;" vertex="1" parent="3">
          <mxGeometry x="105" y="632" width="40" height="20" as="geometry" />
        </mxCell>
        <mxCell id="4" value="API" style="swimlane;whiteSpace=wrap" parent="1" vertex="1">
          <mxGeometry x="720" y="129" width="280" height="662" as="geometry" />
        </mxCell>
        <mxCell id="4rdkihDqSUUSsWT2atmi-47" style="edgeStyle=orthogonalEdgeStyle;rounded=0;orthogonalLoop=1;jettySize=auto;html=1;exitX=0.5;exitY=1;exitDx=0;exitDy=0;entryX=0.493;entryY=0;entryDx=0;entryDy=0;entryPerimeter=0;strokeColor=#FF0000;" edge="1" parent="4" source="T-kAuWDEu7MV9xO8nAeO-53" target="4rdkihDqSUUSsWT2atmi-46">
          <mxGeometry relative="1" as="geometry" />
        </mxCell>
        <mxCell id="T-kAuWDEu7MV9xO8nAeO-53" value="Campagin" style="" parent="4" vertex="1">
          <mxGeometry x="100" y="108" width="110" height="68" as="geometry" />
        </mxCell>
        <mxCell id="4rdkihDqSUUSsWT2atmi-46" value="IsSuccess" style="html=1;whiteSpace=wrap;aspect=fixed;shape=isoRectangle;" vertex="1" parent="4">
          <mxGeometry x="81" y="220" width="150" height="90" as="geometry" />
        </mxCell>
        <mxCell id="4rdkihDqSUUSsWT2atmi-65" value="AdsGroup" style="" vertex="1" parent="4">
          <mxGeometry x="90" y="365" width="110" height="68" as="geometry" />
        </mxCell>
        <mxCell id="T-kAuWDEu7MV9xO8nAeO-60" value="" style="endArrow=open;strokeColor=#FF0000;endFill=1;rounded=0;exitX=1;exitY=0.5;exitDx=0;exitDy=0;" parent="1" edge="1" source="4rdkihDqSUUSsWT2atmi-55">
          <mxGeometry relative="1" as="geometry">
            <mxPoint x="650" y="270" as="sourcePoint" />
            <mxPoint x="820" y="270" as="targetPoint" />
            <Array as="points" />
          </mxGeometry>
        </mxCell>
        <mxCell id="T-kAuWDEu7MV9xO8nAeO-61" value="/POST Campagin" style="edgeLabel;html=1;align=center;verticalAlign=middle;resizable=0;points=[];" parent="T-kAuWDEu7MV9xO8nAeO-60" vertex="1" connectable="0">
          <mxGeometry x="-0.126" relative="1" as="geometry">
            <mxPoint x="-17" y="1" as="offset" />
          </mxGeometry>
        </mxCell>
        <mxCell id="T-kAuWDEu7MV9xO8nAeO-43" value="" style="endArrow=open;strokeColor=#FF0000;endFill=1;rounded=0;exitX=1;exitY=0.5;exitDx=0;exitDy=0;entryX=0;entryY=0.5;entryDx=0;entryDy=0;entryPerimeter=0;" parent="1" edge="1" source="7">
          <mxGeometry relative="1" as="geometry">
            <mxPoint x="250" y="460" as="sourcePoint" />
            <mxPoint x="520" y="270" as="targetPoint" />
            <Array as="points">
              <mxPoint x="410" y="270" />
            </Array>
          </mxGeometry>
        </mxCell>
        <mxCell id="4rdkihDqSUUSsWT2atmi-52" style="edgeStyle=orthogonalEdgeStyle;rounded=0;orthogonalLoop=1;jettySize=auto;html=1;entryX=1;entryY=0.5;entryDx=0;entryDy=0;strokeColor=#FF0000;" edge="1" parent="1" source="4rdkihDqSUUSsWT2atmi-46" target="4rdkihDqSUUSsWT2atmi-51">
          <mxGeometry relative="1" as="geometry" />
        </mxCell>
        <mxCell id="4rdkihDqSUUSsWT2atmi-56" value="yes" style="edgeLabel;html=1;align=center;verticalAlign=middle;resizable=0;points=[];fontColor=#FF0000;" vertex="1" connectable="0" parent="4rdkihDqSUUSsWT2atmi-52">
          <mxGeometry x="-0.3529" relative="1" as="geometry">
            <mxPoint as="offset" />
          </mxGeometry>
        </mxCell>
        <mxCell id="4rdkihDqSUUSsWT2atmi-63" style="edgeStyle=orthogonalEdgeStyle;orthogonalLoop=1;jettySize=auto;html=1;entryX=1;entryY=0.5;entryDx=0;entryDy=0;fontColor=#000000;exitX=0.507;exitY=1;exitDx=0;exitDy=0;exitPerimeter=0;rounded=0;dashed=1;" edge="1" parent="1" source="4rdkihDqSUUSsWT2atmi-46" target="4rdkihDqSUUSsWT2atmi-60">
          <mxGeometry relative="1" as="geometry">
            <mxPoint x="860" y="459" as="sourcePoint" />
          </mxGeometry>
        </mxCell>
        <mxCell id="4rdkihDqSUUSsWT2atmi-64" value="no" style="edgeLabel;html=1;align=center;verticalAlign=middle;resizable=0;points=[];fontColor=#000000;" vertex="1" connectable="0" parent="4rdkihDqSUUSsWT2atmi-63">
          <mxGeometry x="-0.6639" y="1" relative="1" as="geometry">
            <mxPoint as="offset" />
          </mxGeometry>
        </mxCell>
        <mxCell id="4rdkihDqSUUSsWT2atmi-67" style="edgeStyle=orthogonalEdgeStyle;rounded=0;orthogonalLoop=1;jettySize=auto;html=1;fontColor=#000000;strokeColor=#FF0000;" edge="1" parent="1" source="4rdkihDqSUUSsWT2atmi-53">
          <mxGeometry relative="1" as="geometry">
            <mxPoint x="810" y="530" as="targetPoint" />
          </mxGeometry>
        </mxCell>
        <mxCell id="4rdkihDqSUUSsWT2atmi-68" value="/POST AdsGroup" style="edgeLabel;html=1;align=center;verticalAlign=middle;resizable=0;points=[];fontColor=#000000;" vertex="1" connectable="0" parent="4rdkihDqSUUSsWT2atmi-67">
          <mxGeometry x="-0.337" y="-1" relative="1" as="geometry">
            <mxPoint as="offset" />
          </mxGeometry>
        </mxCell>
        <mxCell id="4rdkihDqSUUSsWT2atmi-76" style="edgeStyle=orthogonalEdgeStyle;rounded=0;orthogonalLoop=1;jettySize=auto;html=1;exitX=0;exitY=0.5;exitDx=0;exitDy=0;entryX=1;entryY=0.483;entryDx=0;entryDy=0;entryPerimeter=0;fontColor=#000000;strokeColor=#FF0000;" edge="1" parent="1" source="4rdkihDqSUUSsWT2atmi-71" target="4rdkihDqSUUSsWT2atmi-74">
          <mxGeometry relative="1" as="geometry" />
        </mxCell>
        <mxCell id="4rdkihDqSUUSsWT2atmi-79" value="yes" style="edgeLabel;html=1;align=center;verticalAlign=middle;resizable=0;points=[];fontColor=#FF0000;" vertex="1" connectable="0" parent="4rdkihDqSUUSsWT2atmi-76">
          <mxGeometry x="-0.2298" relative="1" as="geometry">
            <mxPoint as="offset" />
          </mxGeometry>
        </mxCell>
        <mxCell id="4rdkihDqSUUSsWT2atmi-81" value="" style="edgeStyle=orthogonalEdgeStyle;rounded=0;orthogonalLoop=1;jettySize=auto;html=1;fontColor=#FF0000;strokeColor=#000000;exitX=0.5;exitY=1;exitDx=0;exitDy=0;dashed=1;" edge="1" parent="1" source="4rdkihDqSUUSsWT2atmi-71" target="4rdkihDqSUUSsWT2atmi-80">
          <mxGeometry relative="1" as="geometry" />
        </mxCell>
        <mxCell id="4rdkihDqSUUSsWT2atmi-83" value="no" style="edgeLabel;html=1;align=center;verticalAlign=middle;resizable=0;points=[];fontColor=#000000;" vertex="1" connectable="0" parent="4rdkihDqSUUSsWT2atmi-81">
          <mxGeometry x="-0.2518" y="3" relative="1" as="geometry">
            <mxPoint as="offset" />
          </mxGeometry>
        </mxCell>
        <mxCell id="4rdkihDqSUUSsWT2atmi-71" value="IsSuccess" style="rhombus;whiteSpace=wrap;html=1;" vertex="1" parent="1">
          <mxGeometry x="790" y="599" width="150" height="80" as="geometry" />
        </mxCell>
        <mxCell id="4rdkihDqSUUSsWT2atmi-72" value="" style="edgeStyle=orthogonalEdgeStyle;rounded=0;orthogonalLoop=1;jettySize=auto;html=1;fontColor=#000000;strokeColor=#FF0000;exitX=0.5;exitY=1.015;exitDx=0;exitDy=0;exitPerimeter=0;" edge="1" parent="1" source="4rdkihDqSUUSsWT2atmi-65" target="4rdkihDqSUUSsWT2atmi-71">
          <mxGeometry relative="1" as="geometry" />
        </mxCell>
        <mxCell id="4rdkihDqSUUSsWT2atmi-77" style="edgeStyle=orthogonalEdgeStyle;rounded=0;orthogonalLoop=1;jettySize=auto;html=1;fontColor=#000000;strokeColor=#FF0000;" edge="1" parent="1">
          <mxGeometry relative="1" as="geometry">
            <mxPoint x="569" y="760" as="targetPoint" />
            <mxPoint x="569" y="670" as="sourcePoint" />
          </mxGeometry>
        </mxCell>
      </root>
    </mxGraphModel>
  </diagram>
</mxfile>
